<?xml version="1.0" standalone="no"?>
<!DOCTYPE svg PUBLIC "-//W3C//DTD SVG 1.1//EN"
"http://www.w3.org/Graphics/SVG/1.1/DTD/svg11.dtd">

<svg width="485" height="263" view_box="0 0 485 263"
xmlns="http://www.w3.org/2000/svg"
xmlns:link="http://www.w3.org/1999/xlink">\n\n<desc>Généré par Mocodo 2.3.7 le Sat, 27 Feb 2021 05:15:48</desc>

<rect id="frame" x="0" y="0" width="485" height="263" fill="#f5f5f5" stroke="none" stroke-width="0"/>

<!-- Association RANKS -->
<line x1="244" y1="186" x2="146" y2="186" stroke="#bf812d" stroke-width="2"/>
<text x="184" y="203.0" fill="#01665e" font-family="Verdana" font-size="12">1,1</text>
<line x1="48" y1="186" x2="146" y2="186" stroke="#bf812d" stroke-width="2"/>
<text x="77" y="203.0" fill="#01665e" font-family="Verdana" font-size="12">0,N</text>
<g id="association-RANKS">
	<path d="M 161 161 a 14 14 90 0 1 14 14 V 186 h -58 V 175 a 14 14 90 0 1 14 -14" fill="#dfc27d" stroke="#dfc27d" stroke-width="0"/>
	<path d="M 175 186.0 v 11 a 14 14 90 0 1 -14 14 H 131 a 14 14 90 0 1 -14 -14 V 186.0 H 58" fill="#f6e8c3" stroke="#f6e8c3" stroke-width="0"/>
	<rect x="117" y="161" width="58" height="50" fill="none" rx="14" stroke="#bf812d" stroke-width="2"/>
	<line x1="117" y1="186" x2="175" y2="186" stroke="#bf812d" stroke-width="1"/>
	<text x="124" y="178.7" fill="#000000" font-family="Verdana" font-size="12">RANKS</text>
</g>

<!-- Association USE -->
<line x1="244" y1="186" x2="345" y2="186" stroke="#bf812d" stroke-width="2"/>
<text x="283" y="203.0" fill="#01665e" font-family="Verdana" font-size="12">0,N</text>
<line x1="441" y1="186" x2="345" y2="186" stroke="#bf812d" stroke-width="2"/>
<text x="380" y="203.0" fill="#01665e" font-family="Verdana" font-size="12">1,1</text>
<g id="association-USE">
	<path d="M 351 161 a 14 14 90 0 1 14 14 V 186 h -40 V 175 a 14 14 90 0 1 14 -14" fill="#dfc27d" stroke="#dfc27d" stroke-width="0"/>
	<path d="M 365 186.0 v 11 a 14 14 90 0 1 -14 14 H 339 a 14 14 90 0 1 -14 -14 V 186.0 H 40" fill="#f6e8c3" stroke="#f6e8c3" stroke-width="0"/>
	<rect x="325" y="161" width="40" height="50" fill="none" rx="14" stroke="#bf812d" stroke-width="2"/>
	<line x1="325" y1="186" x2="365" y2="186" stroke="#bf812d" stroke-width="1"/>
	<text x="332" y="178.7" fill="#000000" font-family="Verdana" font-size="12">USE</text>
</g>

<!-- Association WORK -->
<line x1="48" y1="51" x2="146" y2="51" stroke="#bf812d" stroke-width="2"/>
<text x="92" y="68.0" fill="#01665e" font-family="Verdana" font-size="12">0,N</text>
<line x1="244" y1="51" x2="146" y2="51" stroke="#bf812d" stroke-width="2"/>
<text x="179" y="68.0" fill="#01665e" font-family="Verdana" font-size="12">1,1</text>
<g id="association-WORK">
	<path d="M 159 26 a 14 14 90 0 1 14 14 V 51 h -54 V 40 a 14 14 90 0 1 14 -14" fill="#dfc27d" stroke="#dfc27d" stroke-width="0"/>
	<path d="M 173 51.0 v 11 a 14 14 90 0 1 -14 14 H 133 a 14 14 90 0 1 -14 -14 V 51.0 H 54" fill="#f6e8c3" stroke="#f6e8c3" stroke-width="0"/>
	<rect x="119" y="26" width="54" height="50" fill="none" rx="14" stroke="#bf812d" stroke-width="2"/>
	<line x1="119" y1="51" x2="173" y2="51" stroke="#bf812d" stroke-width="1"/>
	<text x="126" y="43.7" fill="#000000" font-family="Verdana" font-size="12">WORK</text>
</g>

<!-- Association DEFINE -->
<line x1="244" y1="51" x2="345" y2="51" stroke="#bf812d" stroke-width="2"/>
<text x="288" y="68.0" fill="#01665e" font-family="Verdana" font-size="12">1,1</text>
<line x1="441" y1="51" x2="345" y2="51" stroke="#bf812d" stroke-width="2"/>
<text x="380" y="68.0" fill="#01665e" font-family="Verdana" font-size="12">0,N</text>
<g id="association-DEFINE">
	<path d="M 361 26 a 14 14 90 0 1 14 14 V 51 h -60 V 40 a 14 14 90 0 1 14 -14" fill="#dfc27d" stroke="#dfc27d" stroke-width="0"/>
	<path d="M 375 51.0 v 11 a 14 14 90 0 1 -14 14 H 329 a 14 14 90 0 1 -14 -14 V 51.0 H 60" fill="#f6e8c3" stroke="#f6e8c3" stroke-width="0"/>
	<rect x="315" y="26" width="60" height="50" fill="none" rx="14" stroke="#bf812d" stroke-width="2"/>
	<line x1="315" y1="51" x2="375" y2="51" stroke="#bf812d" stroke-width="1"/>
	<text x="322" y="43.7" fill="#000000" font-family="Verdana" font-size="12">DEFINE</text>
</g>

<!-- Entity MAINCAT -->
<g id="entity-MAINCAT">
	<g id="frame-MAINCAT">
		<rect x="407" y="17" width="68" height="25" fill="#80cdc1" stroke="#80cdc1" stroke-width="0"/>
		<rect x="407" y="42.0" width="68" height="43" fill="#c7eae5" stroke="#c7eae5" stroke-width="0"/>
		<rect x="407" y="17" width="68" height="68" fill="none" stroke="#35978f" stroke-width="2"/>
		<line x1="407" y1="42" x2="475" y2="42" stroke="#35978f" stroke-width="1"/>
	</g>
	<text x="412" y="34.7" fill="#000000" font-family="Verdana" font-size="12">MAINCAT</text>
	<text x="412" y="59.8" fill="#000000" font-family="Verdana" font-size="12">id</text>
	<line x1="412" y1="62" x2="424" y2="62" stroke="#000000" stroke-width="1"/>
	<text x="412" y="76.8" fill="#000000" font-family="Verdana" font-size="12">name</text>
</g>

<!-- Entity LEVEL -->
<g id="entity-LEVEL">
	<g id="frame-LEVEL">
		<rect x="24" y="152" width="48" height="25" fill="#80cdc1" stroke="#80cdc1" stroke-width="0"/>
		<rect x="24" y="177.0" width="48" height="43" fill="#c7eae5" stroke="#c7eae5" stroke-width="0"/>
		<rect x="24" y="152" width="48" height="68" fill="none" stroke="#35978f" stroke-width="2"/>
		<line x1="24" y1="177" x2="72" y2="177" stroke="#35978f" stroke-width="1"/>
	</g>
	<text x="29" y="169.7" fill="#000000" font-family="Verdana" font-size="12">LEVEL</text>
	<text x="29" y="194.8" fill="#000000" font-family="Verdana" font-size="12">id</text>
	<line x1="29" y1="197" x2="41" y2="197" stroke="#000000" stroke-width="1"/>
	<text x="29" y="211.8" fill="#000000" font-family="Verdana" font-size="12">name</text>
</g>

<!-- Entity TIMELINE -->
<g id="entity-TIMELINE">
	<g id="frame-TIMELINE">
		<rect x="406" y="144" width="70" height="25" fill="#80cdc1" stroke="#80cdc1" stroke-width="0"/>
		<rect x="406" y="169.0" width="70" height="59" fill="#c7eae5" stroke="#c7eae5" stroke-width="0"/>
		<rect x="406" y="144" width="70" height="84" fill="none" stroke="#35978f" stroke-width="2"/>
		<line x1="406" y1="169" x2="476" y2="169" stroke="#35978f" stroke-width="1"/>
	</g>
	<text x="411" y="161.7" fill="#000000" font-family="Verdana" font-size="12">TIMELINE</text>
	<text x="411" y="186.8" fill="#000000" font-family="Verdana" font-size="12">id</text>
	<line x1="411" y1="189" x2="423" y2="189" stroke="#000000" stroke-width="1"/>
	<text x="411" y="203.8" fill="#000000" font-family="Verdana" font-size="12">name</text>
	<text x="411" y="220.8" fill="#000000" font-family="Verdana" font-size="12">content</text>
</g>

<!-- Entity EXERCICE -->
<g id="entity-EXERCICE">
	<g id="frame-EXERCICE">
		<rect x="205" y="9" width="78" height="25" fill="#80cdc1" stroke="#80cdc1" stroke-width="0"/>
		<rect x="205" y="34.0" width="78" height="59" fill="#c7eae5" stroke="#c7eae5" stroke-width="0"/>
		<rect x="205" y="9" width="78" height="84" fill="none" stroke="#35978f" stroke-width="2"/>
		<line x1="205" y1="34" x2="283" y2="34" stroke="#35978f" stroke-width="1"/>
	</g>
	<text x="213" y="26.7" fill="#000000" font-family="Verdana" font-size="12">EXERCICE</text>
	<text x="210" y="51.8" fill="#000000" font-family="Verdana" font-size="12">id</text>
	<line x1="210" y1="54" x2="222" y2="54" stroke="#000000" stroke-width="1"/>
	<text x="210" y="68.8" fill="#000000" font-family="Verdana" font-size="12">name</text>
	<text x="210" y="85.8" fill="#000000" font-family="Verdana" font-size="12">description</text>
</g>

<!-- Entity USER -->
<g id="entity-USER">
	<g id="frame-USER">
		<rect x="210" y="118" width="68" height="25" fill="#80cdc1" stroke="#80cdc1" stroke-width="0"/>
		<rect x="210" y="143.0" width="68" height="111" fill="#c7eae5" stroke="#c7eae5" stroke-width="0"/>
		<rect x="210" y="118" width="68" height="136" fill="none" stroke="#35978f" stroke-width="2"/>
		<line x1="210" y1="143" x2="278" y2="143" stroke="#35978f" stroke-width="1"/>
	</g>
	<text x="227" y="135.7" fill="#000000" font-family="Verdana" font-size="12">USER</text>
	<text x="215" y="160.7" fill="#000000" font-family="Verdana" font-size="12">id</text>
	<line x1="215" y1="163" x2="227" y2="163" stroke="#000000" stroke-width="1"/>
	<text x="215" y="177.7" fill="#000000" font-family="Verdana" font-size="12">firstname</text>
	<text x="215" y="194.8" fill="#000000" font-family="Verdana" font-size="12">lastname</text>
	<text x="215" y="211.8" fill="#000000" font-family="Verdana" font-size="12">pseudo</text>
	<text x="215" y="228.8" fill="#000000" font-family="Verdana" font-size="12">email</text>
	<text x="215" y="245.8" fill="#000000" font-family="Verdana" font-size="12">password</text>
</g>

<!-- Entity BODYPART -->
<g id="entity-BODYPART">
	<g id="frame-BODYPART">
		<rect x="9" y="17" width="78" height="25" fill="#80cdc1" stroke="#80cdc1" stroke-width="0"/>
		<rect x="9" y="42.0" width="78" height="43" fill="#c7eae5" stroke="#c7eae5" stroke-width="0"/>
		<rect x="9" y="17" width="78" height="68" fill="none" stroke="#35978f" stroke-width="2"/>
		<line x1="9" y1="42" x2="87" y2="42" stroke="#35978f" stroke-width="1"/>
	</g>
	<text x="14" y="34.7" fill="#000000" font-family="Verdana" font-size="12">BODYPART</text>
	<text x="14" y="59.8" fill="#000000" font-family="Verdana" font-size="12">id</text>
	<line x1="14" y1="62" x2="26" y2="62" stroke="#000000" stroke-width="1"/>
	<text x="14" y="76.8" fill="#000000" font-family="Verdana" font-size="12">name</text>
</g>
</svg>